<svg width="175" height="119" viewBox="0 0 175 119" fill="none" xmlns="http://www.w3.org/2000/svg">
<path d="M15.4698 75.2767L15.6417 82.3392H15.0011C14.699 80.5683 13.9542 79.1465 12.7667 78.0735C11.5896 76.9902 10.3136 76.4485 8.9386 76.4485C7.8761 76.4485 7.03235 76.735 6.40735 77.3079C5.79277 77.8704 5.48547 78.5215 5.48547 79.261C5.48547 79.7298 5.59485 80.1465 5.8136 80.511C6.11568 81.0006 6.60006 81.485 7.26672 81.9642C7.75631 82.3079 8.88652 82.9173 10.6573 83.7923C13.1365 85.011 14.8084 86.1621 15.673 87.2454C16.5271 88.3288 16.9542 89.5683 16.9542 90.9642C16.9542 92.735 16.2615 94.261 14.8761 95.5423C13.5011 96.8131 11.7511 97.4485 9.6261 97.4485C8.95943 97.4485 8.32922 97.3808 7.73547 97.2454C7.14172 97.11 6.39693 96.8548 5.5011 96.4798C5.0011 96.2715 4.58964 96.1673 4.26672 96.1673C3.99589 96.1673 3.70943 96.2715 3.40735 96.4798C3.10527 96.6881 2.86047 97.0058 2.67297 97.4329H2.09485V89.4329H2.67297C3.13131 91.6829 4.01152 93.4017 5.3136 94.5892C6.6261 95.7663 8.03756 96.3548 9.54797 96.3548C10.7146 96.3548 11.6417 96.0371 12.3292 95.4017C13.0271 94.7663 13.3761 94.0267 13.3761 93.1829C13.3761 92.6829 13.2407 92.1985 12.9698 91.7298C12.7094 91.261 12.3084 90.8183 11.7667 90.4017C11.2251 89.9746 10.2667 89.4225 8.89172 88.7454C6.96464 87.7975 5.57922 86.9902 4.73547 86.3235C3.89172 85.6569 3.24068 84.9121 2.78235 84.0892C2.33443 83.2663 2.11047 82.36 2.11047 81.3704C2.11047 79.6829 2.73027 78.2454 3.96985 77.0579C5.20943 75.8704 6.77193 75.2767 8.65735 75.2767C9.34485 75.2767 10.0115 75.36 10.6573 75.5267C11.1469 75.6517 11.7407 75.886 12.4386 76.2298C13.1469 76.5631 13.6417 76.7298 13.923 76.7298C14.1938 76.7298 14.4073 76.6465 14.5636 76.4798C14.7198 76.3131 14.8657 75.9121 15.0011 75.2767H15.4698ZM26.8917 87.3548V93.2298C26.8917 94.3756 26.9594 95.0996 27.0948 95.4017C27.2407 95.6933 27.4907 95.9277 27.8448 96.1048C28.2094 96.2819 28.8709 96.3704 29.8292 96.3704V96.9485H19.0636V96.3704C20.0428 96.3704 20.7042 96.2819 21.048 96.1048C21.4021 95.9173 21.6469 95.6777 21.7823 95.386C21.9282 95.0944 22.0011 94.3756 22.0011 93.2298V79.4798C22.0011 78.334 21.9282 77.6152 21.7823 77.3235C21.6469 77.0215 21.4021 76.7819 21.048 76.6048C20.6938 76.4277 20.0323 76.3392 19.0636 76.3392V75.761H28.298C31.3396 75.761 33.5219 76.3027 34.8448 77.386C36.1678 78.4694 36.8292 79.8235 36.8292 81.4485C36.8292 82.8235 36.4021 84.0006 35.548 84.9798C34.6938 85.959 33.5167 86.6256 32.0167 86.9798C31.0063 87.2298 29.298 87.3548 26.8917 87.3548ZM26.8917 76.9798V86.136C27.2355 86.1569 27.4959 86.1673 27.673 86.1673C28.9438 86.1673 29.923 85.7923 30.6105 85.0423C31.298 84.2819 31.6417 83.11 31.6417 81.5267C31.6417 79.9538 31.298 78.8027 30.6105 78.0735C29.923 77.3444 28.8969 76.9798 27.5323 76.9798H26.8917ZM42.3605 76.3392V75.761H53.6261V76.3392H52.9386C52.3136 76.3392 51.8136 76.4485 51.4386 76.6673C51.1782 76.8131 50.9698 77.0631 50.8136 77.4173C50.699 77.6673 50.6417 78.3235 50.6417 79.386V89.761C50.6417 91.7923 50.4386 93.2715 50.0323 94.1985C49.6261 95.1152 48.9021 95.886 47.8605 96.511C46.8292 97.1256 45.5844 97.4329 44.1261 97.4329C42.3448 97.4329 40.9021 96.9642 39.798 96.0267C38.7042 95.0892 38.1573 94.0527 38.1573 92.9173C38.1573 92.1881 38.3813 91.5996 38.8292 91.1517C39.2771 90.6933 39.824 90.4642 40.4698 90.4642C41.1053 90.4642 41.6365 90.6673 42.0636 91.0735C42.5011 91.4798 42.7198 91.9798 42.7198 92.5735C42.7198 92.8652 42.6834 93.1204 42.6105 93.3392C42.5688 93.4433 42.4021 93.709 42.1105 94.136C41.8292 94.5527 41.6886 94.8496 41.6886 95.0267C41.6886 95.2975 41.824 95.5319 42.0948 95.7298C42.4907 96.0215 43.0063 96.1673 43.6417 96.1673C44.0896 96.1673 44.4594 96.0527 44.7511 95.8235C45.0428 95.5944 45.2459 95.2402 45.3605 94.761C45.4855 94.2715 45.548 92.9225 45.548 90.7142V79.386C45.548 78.3027 45.4855 77.6256 45.3605 77.3548C45.2459 77.084 45.0115 76.8496 44.6573 76.6517C44.3136 76.4433 43.8448 76.3392 43.2511 76.3392H42.3605ZM82.0167 89.511L81.2198 96.9485H62.4073V96.3704H63.1105C63.7251 96.3704 64.2198 96.261 64.5948 96.0423C64.8657 95.8965 65.074 95.6465 65.2198 95.2923C65.3344 95.0423 65.3917 94.386 65.3917 93.3235V79.386C65.3917 78.3027 65.3344 77.6256 65.2198 77.3548C65.1053 77.084 64.8709 76.8496 64.5167 76.6517C64.173 76.4433 63.7042 76.3392 63.1105 76.3392H62.4073V75.761H73.7042V76.3392H72.7823C72.1678 76.3392 71.673 76.4485 71.298 76.6673C71.0271 76.8131 70.8136 77.0631 70.6573 77.4173C70.5428 77.6673 70.4855 78.3235 70.4855 79.386V92.886C70.4855 93.9694 70.548 94.6621 70.673 94.9642C70.798 95.2558 71.0428 95.4746 71.4073 95.6204C71.6678 95.7142 72.298 95.761 73.298 95.761H75.0636C76.1886 95.761 77.1261 95.5631 77.8761 95.1673C78.6261 94.7715 79.2719 94.1465 79.8136 93.2923C80.3657 92.4381 80.8865 91.1777 81.3761 89.511H82.0167ZM91.8761 76.9798V85.6048H92.298C93.6417 85.6048 94.6157 85.1829 95.2198 84.3392C95.824 83.4954 96.2094 82.2506 96.3761 80.6048H96.9698V91.6985H96.3761C96.2511 90.4902 95.9855 89.5006 95.5792 88.7298C95.1834 87.959 94.7198 87.4433 94.1886 87.1829C93.6573 86.9121 92.8865 86.7767 91.8761 86.7767V92.7454C91.8761 93.9121 91.923 94.6256 92.0167 94.886C92.1209 95.1465 92.3084 95.36 92.5792 95.5267C92.8501 95.6933 93.2876 95.7767 93.8917 95.7767H95.1573C97.1365 95.7767 98.7198 95.3183 99.9073 94.4017C101.105 93.485 101.965 92.0892 102.485 90.2142H103.064L102.11 96.9485H83.798V96.3704H84.5011C85.1157 96.3704 85.6105 96.261 85.9855 96.0423C86.2563 95.8965 86.4646 95.6465 86.6105 95.2923C86.7251 95.0423 86.7823 94.386 86.7823 93.3235V79.386C86.7823 78.4277 86.7563 77.8392 86.7042 77.6204C86.6001 77.2558 86.4073 76.9746 86.1261 76.7767C85.7303 76.485 85.1886 76.3392 84.5011 76.3392H83.798V75.761H101.532V82.0267H100.939C100.637 80.4954 100.209 79.3965 99.6573 78.7298C99.1157 78.0631 98.3448 77.5735 97.3448 77.261C96.7615 77.0735 95.6678 76.9798 94.0636 76.9798H91.8761ZM126.579 75.2767V82.7454H126.001C125.303 80.7038 124.256 79.1517 122.86 78.0892C121.465 77.0267 119.939 76.4954 118.282 76.4954C116.699 76.4954 115.381 76.9433 114.329 77.8392C113.277 78.7246 112.532 79.9642 112.095 81.5579C111.657 83.1517 111.439 84.7871 111.439 86.4642C111.439 88.4954 111.678 90.2767 112.157 91.8079C112.637 93.3392 113.407 94.4642 114.47 95.1829C115.543 95.9017 116.814 96.261 118.282 96.261C118.793 96.261 119.314 96.209 119.845 96.1048C120.387 95.9902 120.939 95.8288 121.501 95.6204V91.2142C121.501 90.3808 121.444 89.8444 121.329 89.6048C121.215 89.3548 120.975 89.1308 120.61 88.9329C120.256 88.735 119.824 88.636 119.314 88.636H118.767V88.0579H129.064V88.636C128.282 88.6881 127.735 88.7975 127.423 88.9642C127.121 89.1204 126.887 89.386 126.72 89.761C126.626 89.959 126.579 90.4433 126.579 91.2142V95.6204C125.225 96.2246 123.814 96.6777 122.345 96.9798C120.887 97.2923 119.371 97.4485 117.798 97.4485C115.788 97.4485 114.116 97.1777 112.782 96.636C111.459 96.084 110.288 95.3652 109.267 94.4798C108.256 93.584 107.465 92.5788 106.892 91.4642C106.163 90.0267 105.798 88.4173 105.798 86.636C105.798 83.4485 106.918 80.7558 109.157 78.5579C111.397 76.36 114.215 75.261 117.61 75.261C118.663 75.261 119.61 75.3444 120.454 75.511C120.913 75.5944 121.652 75.834 122.673 76.2298C123.704 76.6152 124.314 76.8079 124.501 76.8079C124.793 76.8079 125.064 76.7038 125.314 76.4954C125.564 76.2767 125.793 75.8704 126.001 75.2767H126.579ZM142.72 90.9173H135.235L134.345 92.9798C134.053 93.6673 133.907 94.235 133.907 94.6829C133.907 95.2767 134.147 95.7142 134.626 95.9954C134.907 96.1621 135.6 96.2871 136.704 96.3704V96.9485H129.657V96.3704C130.418 96.2558 131.043 95.9433 131.532 95.4329C132.022 94.9121 132.626 93.8444 133.345 92.2298L140.923 75.3235H141.22L148.86 92.6985C149.59 94.3444 150.189 95.3808 150.657 95.8079C151.012 96.1308 151.512 96.3183 152.157 96.3704V96.9485H141.907V96.3704H142.329C143.152 96.3704 143.73 96.2558 144.064 96.0267C144.293 95.86 144.407 95.6204 144.407 95.3079C144.407 95.1204 144.376 94.9277 144.314 94.7298C144.293 94.636 144.137 94.2454 143.845 93.5579L142.72 90.9173ZM142.189 89.761L139.032 82.4642L135.782 89.761H142.189ZM172.735 89.511L171.939 96.9485H153.126V96.3704H153.829C154.444 96.3704 154.939 96.261 155.314 96.0423C155.584 95.8965 155.793 95.6465 155.939 95.2923C156.053 95.0423 156.11 94.386 156.11 93.3235V79.386C156.11 78.3027 156.053 77.6256 155.939 77.3548C155.824 77.084 155.59 76.8496 155.235 76.6517C154.892 76.4433 154.423 76.3392 153.829 76.3392H153.126V75.761H164.423V76.3392H163.501C162.887 76.3392 162.392 76.4485 162.017 76.6673C161.746 76.8131 161.532 77.0631 161.376 77.4173C161.262 77.6673 161.204 78.3235 161.204 79.386V92.886C161.204 93.9694 161.267 94.6621 161.392 94.9642C161.517 95.2558 161.762 95.4746 162.126 95.6204C162.387 95.7142 163.017 95.761 164.017 95.761H165.782C166.907 95.761 167.845 95.5631 168.595 95.1673C169.345 94.7715 169.991 94.1465 170.532 93.2923C171.084 92.4381 171.605 91.1777 172.095 89.511H172.735Z" fill="#001743"/>
<path d="M45.4287 113.288H42.3525L41.8135 114.542C41.6807 114.851 41.6143 115.081 41.6143 115.234C41.6143 115.355 41.6709 115.462 41.7842 115.556C41.9014 115.646 42.1514 115.704 42.5342 115.732V115.949H40.0322V115.732C40.3643 115.673 40.5791 115.597 40.6768 115.503C40.876 115.316 41.0967 114.935 41.3389 114.361L44.1338 107.822H44.3389L47.1045 114.431C47.3271 114.962 47.5283 115.308 47.708 115.468C47.8916 115.624 48.1455 115.712 48.4697 115.732V115.949H45.335V115.732C45.6514 115.716 45.8643 115.663 45.9736 115.574C46.0869 115.484 46.1436 115.374 46.1436 115.245C46.1436 115.074 46.0654 114.802 45.9092 114.431L45.4287 113.288ZM45.2646 112.855L43.917 109.644L42.5342 112.855H45.2646ZM51.6954 115.949V115.732H51.9943C52.3302 115.732 52.5685 115.624 52.7091 115.409C52.795 115.281 52.838 114.992 52.838 114.542V109.409C52.838 108.913 52.7833 108.603 52.6739 108.478C52.5216 108.306 52.295 108.22 51.9943 108.22H51.6954V108.003H54.9298C56.1173 108.003 57.0196 108.138 57.6368 108.408C58.2579 108.677 58.756 109.126 59.131 109.755C59.5099 110.384 59.6993 111.111 59.6993 111.935C59.6993 113.04 59.3634 113.964 58.6915 114.706C57.9376 115.534 56.7892 115.949 55.2462 115.949H51.6954ZM53.963 115.374C54.4591 115.484 54.8751 115.538 55.2111 115.538C56.1173 115.538 56.8693 115.22 57.4669 114.583C58.0646 113.947 58.3634 113.083 58.3634 111.993C58.3634 110.896 58.0646 110.031 57.4669 109.398C56.8693 108.765 56.1017 108.449 55.1642 108.449C54.8126 108.449 54.4122 108.505 53.963 108.618V115.374ZM71.5618 108.003V108.22C71.2805 108.271 71.0676 108.361 70.9231 108.49C70.7161 108.681 70.5325 108.974 70.3723 109.368L67.6008 116.13H67.384L64.4075 109.281C64.2551 108.929 64.1477 108.714 64.0852 108.636C63.9875 108.515 63.8664 108.421 63.7219 108.355C63.5813 108.284 63.3899 108.24 63.1477 108.22V108.003H66.3938V108.22C66.0266 108.255 65.7883 108.318 65.6789 108.408C65.5696 108.497 65.5149 108.613 65.5149 108.753C65.5149 108.949 65.6047 109.253 65.7844 109.667L67.8059 114.326L69.6809 109.726C69.8645 109.273 69.9563 108.958 69.9563 108.783C69.9563 108.669 69.8996 108.562 69.7864 108.46C69.6731 108.355 69.4817 108.281 69.2121 108.238C69.1926 108.234 69.1594 108.228 69.1125 108.22V108.003H71.5618ZM78.9828 107.822C80.014 107.822 80.9066 108.214 81.6605 108.999C82.4183 109.781 82.7972 110.757 82.7972 111.929C82.7972 113.136 82.4164 114.138 81.6546 114.935C80.8929 115.732 79.9711 116.13 78.889 116.13C77.7953 116.13 76.8754 115.742 76.1293 114.964C75.3871 114.187 75.016 113.181 75.016 111.947C75.016 110.685 75.4457 109.656 76.305 108.859C77.0511 108.167 77.9437 107.822 78.9828 107.822ZM78.8714 108.249C78.1605 108.249 77.5902 108.513 77.1605 109.04C76.6254 109.697 76.3578 110.658 76.3578 111.923C76.3578 113.22 76.6351 114.218 77.1898 114.917C77.6156 115.449 78.1781 115.714 78.8773 115.714C79.6234 115.714 80.2386 115.423 80.723 114.841C81.2113 114.259 81.4554 113.341 81.4554 112.087C81.4554 110.728 81.1879 109.714 80.6527 109.046C80.223 108.515 79.6293 108.249 78.8714 108.249ZM93.3706 107.822L93.5522 110.523H93.3706C93.1284 109.714 92.7827 109.132 92.3335 108.777C91.8843 108.421 91.3452 108.243 90.7163 108.243C90.1889 108.243 89.7124 108.378 89.2866 108.648C88.8608 108.913 88.5249 109.339 88.2788 109.925C88.0366 110.511 87.9155 111.24 87.9155 112.111C87.9155 112.829 88.0307 113.452 88.2612 113.98C88.4917 114.507 88.8374 114.911 89.2983 115.193C89.7632 115.474 90.2925 115.615 90.8862 115.615C91.4018 115.615 91.8569 115.505 92.2514 115.286C92.646 115.064 93.0796 114.624 93.5522 113.968L93.7339 114.085C93.3354 114.792 92.8706 115.31 92.3393 115.638C91.8081 115.966 91.1772 116.13 90.4468 116.13C89.1304 116.13 88.1108 115.642 87.3882 114.665C86.8491 113.939 86.5796 113.083 86.5796 112.099C86.5796 111.306 86.7573 110.577 87.1128 109.913C87.4682 109.249 87.9565 108.736 88.5776 108.372C89.2026 108.005 89.8843 107.822 90.6225 107.822C91.1968 107.822 91.7632 107.962 92.3218 108.243C92.4858 108.329 92.603 108.372 92.6733 108.372C92.7788 108.372 92.8706 108.335 92.9487 108.261C93.0503 108.156 93.1225 108.009 93.1655 107.822H93.3706ZM102.52 113.288H99.4439L98.9049 114.542C98.7721 114.851 98.7057 115.081 98.7057 115.234C98.7057 115.355 98.7623 115.462 98.8756 115.556C98.9928 115.646 99.2428 115.704 99.6256 115.732V115.949H97.1236V115.732C97.4557 115.673 97.6705 115.597 97.7682 115.503C97.9674 115.316 98.1881 114.935 98.4303 114.361L101.225 107.822H101.43L104.196 114.431C104.419 114.962 104.62 115.308 104.799 115.468C104.983 115.624 105.237 115.712 105.561 115.732V115.949H102.426V115.732C102.743 115.716 102.956 115.663 103.065 115.574C103.178 115.484 103.235 115.374 103.235 115.245C103.235 115.074 103.157 114.802 103.001 114.431L102.52 113.288ZM102.356 112.855L101.008 109.644L99.6256 112.855H102.356ZM114.189 108.003L114.277 109.867H114.054C114.011 109.538 113.953 109.304 113.879 109.163C113.758 108.937 113.595 108.771 113.392 108.665C113.193 108.556 112.929 108.501 112.601 108.501H111.482V114.572C111.482 115.06 111.535 115.365 111.64 115.486C111.789 115.65 112.017 115.732 112.326 115.732H112.601V115.949H109.232V115.732H109.513C109.849 115.732 110.088 115.63 110.228 115.427C110.314 115.302 110.357 115.017 110.357 114.572V108.501H109.402C109.031 108.501 108.767 108.529 108.611 108.583C108.408 108.658 108.234 108.8 108.09 109.011C107.945 109.222 107.859 109.507 107.832 109.867H107.609L107.703 108.003H114.189ZM119.97 108.437V111.577H121.716C122.169 111.577 122.472 111.509 122.624 111.372C122.827 111.193 122.94 110.876 122.964 110.423H123.181V113.189H122.964C122.909 112.802 122.854 112.554 122.8 112.445C122.729 112.308 122.614 112.201 122.454 112.122C122.294 112.044 122.048 112.005 121.716 112.005H119.97V114.624C119.97 114.976 119.985 115.191 120.016 115.269C120.048 115.343 120.102 115.404 120.181 115.451C120.259 115.493 120.407 115.515 120.626 115.515H121.973C122.423 115.515 122.749 115.484 122.952 115.421C123.155 115.359 123.35 115.236 123.538 115.052C123.78 114.81 124.028 114.445 124.282 113.956H124.516L123.831 115.949H117.708V115.732H117.989C118.177 115.732 118.354 115.687 118.522 115.597C118.647 115.534 118.731 115.441 118.774 115.316C118.821 115.191 118.845 114.935 118.845 114.548V109.386C118.845 108.882 118.794 108.572 118.692 108.454C118.552 108.298 118.317 108.22 117.989 108.22H117.708V108.003H123.831L123.919 109.743H123.69C123.608 109.326 123.516 109.038 123.415 108.882C123.317 108.726 123.171 108.607 122.975 108.525C122.819 108.466 122.544 108.437 122.149 108.437H119.97ZM133.18 107.822V110.57H132.963C132.893 110.042 132.766 109.622 132.582 109.31C132.402 108.997 132.144 108.749 131.809 108.566C131.473 108.382 131.125 108.29 130.766 108.29C130.359 108.29 130.023 108.415 129.758 108.665C129.492 108.911 129.359 109.193 129.359 109.509C129.359 109.751 129.443 109.972 129.611 110.171C129.853 110.464 130.43 110.855 131.34 111.343C132.082 111.742 132.588 112.048 132.857 112.263C133.131 112.474 133.34 112.724 133.484 113.013C133.633 113.302 133.707 113.605 133.707 113.921C133.707 114.523 133.473 115.042 133.004 115.48C132.539 115.913 131.939 116.13 131.205 116.13C130.975 116.13 130.758 116.113 130.555 116.077C130.434 116.058 130.182 115.988 129.799 115.867C129.42 115.742 129.18 115.679 129.078 115.679C128.98 115.679 128.902 115.708 128.844 115.767C128.789 115.826 128.748 115.947 128.721 116.13H128.504V113.406H128.721C128.822 113.976 128.959 114.404 129.131 114.689C129.303 114.97 129.564 115.204 129.916 115.392C130.271 115.579 130.66 115.673 131.082 115.673C131.57 115.673 131.955 115.544 132.236 115.286C132.521 115.029 132.664 114.724 132.664 114.372C132.664 114.177 132.609 113.98 132.5 113.781C132.394 113.581 132.228 113.396 132.002 113.224C131.85 113.107 131.434 112.859 130.754 112.48C130.074 112.097 129.59 111.792 129.301 111.566C129.016 111.339 128.799 111.089 128.65 110.816C128.502 110.542 128.428 110.242 128.428 109.913C128.428 109.343 128.646 108.853 129.084 108.443C129.521 108.029 130.078 107.822 130.754 107.822C131.176 107.822 131.623 107.925 132.096 108.132C132.314 108.23 132.469 108.279 132.559 108.279C132.66 108.279 132.742 108.249 132.805 108.191C132.871 108.128 132.924 108.005 132.963 107.822H133.18Z" fill="#969696"/>
<path d="M94.8974 21.3808H79.9688V56.0702H81.6784V24.2628C81.6784 23.5151 82.2834 22.9101 83.0311 22.9101C83.7789 22.9101 84.3838 23.5151 84.3838 24.2628V56.0702H86.0935V24.2628C86.0935 23.5151 86.6985 22.9101 87.4462 22.9101C88.194 22.9101 88.7989 23.5151 88.7989 24.2628V56.0702H90.5086V24.2628C90.5086 23.5151 91.1135 22.9101 91.8613 22.9101C92.609 22.9101 93.214 23.5151 93.214 24.2628V56.0702H94.9237V21.3808H94.9049H94.8974Z" fill="#001743"/>
<path d="M95.4385 19.2051H79.4503C79.2365 19.2051 79.0632 19.3784 79.0632 19.5922V20.5278C79.0632 20.7415 79.2365 20.9148 79.4503 20.9148H95.4385C95.6522 20.9148 95.8255 20.7415 95.8255 20.5278V19.5922C95.8255 19.3784 95.6522 19.2051 95.4385 19.2051Z" fill="#001743"/>
<path d="M96.641 56.4722H78.2442C78.0305 56.4722 77.8572 56.6455 77.8572 56.8593V57.7949C77.8572 58.0086 78.0305 58.1819 78.2442 58.1819H96.641C96.8547 58.1819 97.028 58.0086 97.028 57.7949V56.8593C97.028 56.6455 96.8547 56.4722 96.641 56.4722Z" fill="#001743"/>
<path d="M99.3539 58.5877H75.535C75.3212 58.5877 75.1479 58.761 75.1479 58.9747V60.5116C75.1479 60.7253 75.3212 60.8986 75.535 60.8986H99.3539C99.5676 60.8986 99.7409 60.7253 99.7409 60.5116V58.9747C99.7409 58.761 99.5676 58.5877 99.3539 58.5877Z" fill="#001743"/>
<path d="M101.105 20.3061L87.7357 7.2187C87.5741 7.06089 87.3149 7.06089 87.1533 7.2187L73.7841 20.3061C73.6488 20.4376 73.6488 20.6518 73.7803 20.7871L74.6032 21.625C74.7347 21.7603 74.9489 21.7603 75.0842 21.6288L87.4464 9.52582L99.8086 21.6288C99.9439 21.7603 100.158 21.7565 100.29 21.625L101.112 20.7871C101.244 20.6518 101.24 20.4376 101.109 20.3061H101.105Z" fill="#001743"/>
<path d="M87.4425 12.1598C87.4425 12.1598 86.9653 14.3354 84.5417 15.2146C86.9653 16.0902 87.4425 18.2695 87.4425 18.2695C87.4425 18.2695 87.9198 16.0939 90.3433 15.2146C87.9198 14.3391 87.4425 12.1598 87.4425 12.1598Z" fill="#001743"/>
<path d="M69.275 13.4712C64.8224 15.6694 60.6365 15.7445 58.0852 15.4777C58.3031 15.0832 58.4309 14.8615 58.4309 14.373C58.4309 12.9264 57.3487 11.9908 56.0185 11.9908C54.6884 11.9908 53.6062 12.9264 53.6062 14.373C53.6062 15.6431 54.4404 16.6877 55.5488 16.9244C55.5902 16.9357 62.5942 18.6378 71.0937 15.7145C74.2988 14.6135 76.8953 13.9447 78.8792 13.5389L83.4597 9.05615C82.4752 9.09749 77.3086 9.50705 69.2826 13.4712H69.275ZM55.9885 15.8272C55.9885 15.8272 55.7705 14.839 54.6733 14.4444C55.7705 14.0461 55.9885 13.0617 55.9885 13.0617C55.9885 13.0617 56.2064 14.0499 57.3036 14.4444C56.2064 14.8427 55.9885 15.8272 55.9885 15.8272Z" fill="#001743"/>
<path d="M118.867 11.9908C117.533 11.9908 116.454 12.9264 116.454 14.373C116.454 14.8653 116.582 15.087 116.8 15.4777C114.245 15.7408 110.059 15.6656 105.61 13.4712C97.5842 9.51081 92.4176 9.10124 91.4331 9.05615L96.0135 13.5389C97.9975 13.9447 100.594 14.6135 103.799 15.7145C112.299 18.6378 119.303 16.9357 119.344 16.9244C120.452 16.6877 121.287 15.6431 121.287 14.373C121.287 12.9264 120.204 11.9908 118.874 11.9908H118.867ZM118.889 15.8272C118.889 15.8272 118.671 14.839 117.574 14.4444C118.671 14.0461 118.889 13.0617 118.889 13.0617C118.889 13.0617 119.107 14.0499 120.204 14.4444C119.107 14.8427 118.889 15.8272 118.889 15.8272Z" fill="#001743"/>
<path d="M66.2578 42.0396H66.0624L56.6198 16.357H55.3573L45.9146 42.0396H45.7192C45.4374 42.0396 45.2758 42.3628 45.4487 42.5844C47.6919 45.5003 51.5734 47.4279 55.9885 47.4279C60.4036 47.4279 64.2851 45.5003 66.5283 42.5844C66.7012 42.3628 66.5359 42.0396 66.2578 42.0396ZM65.3072 42.0396H56.3417V17.6609L65.3072 42.0396ZM55.6316 17.6609V42.0396H46.6699L55.6316 17.6609Z" fill="#001743"/>
<path d="M129.158 42.0396H128.963L119.543 16.4208H118.235L108.815 42.0396H108.62C108.338 42.0396 108.176 42.3627 108.349 42.5844C110.593 45.5002 114.474 47.4278 118.889 47.4278C123.304 47.4278 127.186 45.5002 129.429 42.5844C129.602 42.3627 129.437 42.0396 129.158 42.0396ZM128.208 42.0396H119.242V17.6608L128.208 42.0396ZM118.536 17.6608V42.0396H109.571L118.536 17.6608Z" fill="#001743"/>
<path d="M73.446 13.1255C75.2834 7.22997 80.7919 2.93513 87.2886 2.93513C93.7854 2.93513 99.3352 7.26379 101.15 13.1931L103.453 13.971C101.857 6.51229 95.217 0.89856 87.2886 0.89856C79.3603 0.89856 72.6343 6.57992 71.0938 14.11L73.446 13.1255Z" fill="#001743"/>
</svg>
