<svg width="174" height="119" viewBox="0 0 174 119" fill="none" xmlns="http://www.w3.org/2000/svg">
<path d="M15.0312 74.3781L15.2031 81.4406H14.5625C14.2604 79.6698 13.5156 78.2479 12.3281 77.175C11.151 76.0917 9.875 75.55 8.5 75.55C7.4375 75.55 6.59375 75.8364 5.96875 76.4094C5.35417 76.9719 5.04688 77.6229 5.04688 78.3625C5.04688 78.8312 5.15625 79.2479 5.375 79.6125C5.67708 80.1021 6.16146 80.5864 6.82812 81.0656C7.31771 81.4094 8.44792 82.0187 10.2188 82.8937C12.6979 84.1125 14.3698 85.2635 15.2344 86.3469C16.0885 87.4302 16.5156 88.6698 16.5156 90.0656C16.5156 91.8364 15.8229 93.3625 14.4375 94.6437C13.0625 95.9146 11.3125 96.55 9.1875 96.55C8.52083 96.55 7.89062 96.4823 7.29688 96.3469C6.70312 96.2114 5.95833 95.9562 5.0625 95.5812C4.5625 95.3729 4.15104 95.2687 3.82812 95.2687C3.55729 95.2687 3.27083 95.3729 2.96875 95.5812C2.66667 95.7896 2.42188 96.1073 2.23438 96.5344H1.65625V88.5344H2.23438C2.69271 90.7844 3.57292 92.5031 4.875 93.6906C6.1875 94.8677 7.59896 95.4562 9.10938 95.4562C10.276 95.4562 11.2031 95.1385 11.8906 94.5031C12.5885 93.8677 12.9375 93.1281 12.9375 92.2844C12.9375 91.7844 12.8021 91.3 12.5312 90.8312C12.2708 90.3625 11.8698 89.9198 11.3281 89.5031C10.7865 89.076 9.82812 88.5239 8.45312 87.8469C6.52604 86.8989 5.14062 86.0917 4.29688 85.425C3.45312 84.7583 2.80208 84.0135 2.34375 83.1906C1.89583 82.3677 1.67188 81.4614 1.67188 80.4719C1.67188 78.7844 2.29167 77.3469 3.53125 76.1594C4.77083 74.9719 6.33333 74.3781 8.21875 74.3781C8.90625 74.3781 9.57292 74.4614 10.2188 74.6281C10.7083 74.7531 11.3021 74.9875 12 75.3312C12.7083 75.6646 13.2031 75.8312 13.4844 75.8312C13.7552 75.8312 13.9688 75.7479 14.125 75.5812C14.2812 75.4146 14.4271 75.0135 14.5625 74.3781H15.0312ZM26.4531 86.4562V92.3312C26.4531 93.4771 26.5208 94.201 26.6562 94.5031C26.8021 94.7948 27.0521 95.0292 27.4062 95.2062C27.7708 95.3833 28.4323 95.4719 29.3906 95.4719V96.05H18.625V95.4719C19.6042 95.4719 20.2656 95.3833 20.6094 95.2062C20.9635 95.0187 21.2083 94.7792 21.3438 94.4875C21.4896 94.1958 21.5625 93.4771 21.5625 92.3312V78.5812C21.5625 77.4354 21.4896 76.7167 21.3438 76.425C21.2083 76.1229 20.9635 75.8833 20.6094 75.7062C20.2552 75.5292 19.5938 75.4406 18.625 75.4406V74.8625H27.8594C30.901 74.8625 33.0833 75.4042 34.4062 76.4875C35.7292 77.5708 36.3906 78.925 36.3906 80.55C36.3906 81.925 35.9635 83.1021 35.1094 84.0812C34.2552 85.0604 33.0781 85.7271 31.5781 86.0812C30.5677 86.3312 28.8594 86.4562 26.4531 86.4562ZM26.4531 76.0812V85.2375C26.7969 85.2583 27.0573 85.2687 27.2344 85.2687C28.5052 85.2687 29.4844 84.8937 30.1719 84.1437C30.8594 83.3833 31.2031 82.2114 31.2031 80.6281C31.2031 79.0552 30.8594 77.9042 30.1719 77.175C29.4844 76.4458 28.4583 76.0812 27.0938 76.0812H26.4531ZM41.9219 75.4406V74.8625H53.1875V75.4406H52.5C51.875 75.4406 51.375 75.55 51 75.7687C50.7396 75.9146 50.5312 76.1646 50.375 76.5187C50.2604 76.7687 50.2031 77.425 50.2031 78.4875V88.8625C50.2031 90.8937 50 92.3729 49.5938 93.3C49.1875 94.2167 48.4635 94.9875 47.4219 95.6125C46.3906 96.2271 45.1458 96.5344 43.6875 96.5344C41.9062 96.5344 40.4635 96.0656 39.3594 95.1281C38.2656 94.1906 37.7188 93.1542 37.7188 92.0187C37.7188 91.2896 37.9427 90.701 38.3906 90.2531C38.8385 89.7948 39.3854 89.5656 40.0312 89.5656C40.6667 89.5656 41.1979 89.7687 41.625 90.175C42.0625 90.5812 42.2812 91.0812 42.2812 91.675C42.2812 91.9667 42.2448 92.2219 42.1719 92.4406C42.1302 92.5448 41.9635 92.8104 41.6719 93.2375C41.3906 93.6542 41.25 93.951 41.25 94.1281C41.25 94.3989 41.3854 94.6333 41.6562 94.8312C42.0521 95.1229 42.5677 95.2687 43.2031 95.2687C43.651 95.2687 44.0208 95.1542 44.3125 94.925C44.6042 94.6958 44.8073 94.3417 44.9219 93.8625C45.0469 93.3729 45.1094 92.0239 45.1094 89.8156V78.4875C45.1094 77.4042 45.0469 76.7271 44.9219 76.4562C44.8073 76.1854 44.5729 75.951 44.2188 75.7531C43.875 75.5448 43.4062 75.4406 42.8125 75.4406H41.9219ZM81.5781 88.6125L80.7812 96.05H61.9688V95.4719H62.6719C63.2865 95.4719 63.7812 95.3625 64.1562 95.1437C64.4271 94.9979 64.6354 94.7479 64.7812 94.3937C64.8958 94.1437 64.9531 93.4875 64.9531 92.425V78.4875C64.9531 77.4042 64.8958 76.7271 64.7812 76.4562C64.6667 76.1854 64.4323 75.951 64.0781 75.7531C63.7344 75.5448 63.2656 75.4406 62.6719 75.4406H61.9688V74.8625H73.2656V75.4406H72.3438C71.7292 75.4406 71.2344 75.55 70.8594 75.7687C70.5885 75.9146 70.375 76.1646 70.2188 76.5187C70.1042 76.7687 70.0469 77.425 70.0469 78.4875V91.9875C70.0469 93.0708 70.1094 93.7635 70.2344 94.0656C70.3594 94.3573 70.6042 94.576 70.9688 94.7219C71.2292 94.8156 71.8594 94.8625 72.8594 94.8625H74.625C75.75 94.8625 76.6875 94.6646 77.4375 94.2687C78.1875 93.8729 78.8333 93.2479 79.375 92.3937C79.9271 91.5396 80.4479 90.2792 80.9375 88.6125H81.5781ZM91.4375 76.0812V84.7062H91.8594C93.2031 84.7062 94.1771 84.2844 94.7812 83.4406C95.3854 82.5969 95.7708 81.3521 95.9375 79.7062H96.5312V90.8H95.9375C95.8125 89.5917 95.5469 88.6021 95.1406 87.8312C94.7448 87.0604 94.2812 86.5448 93.75 86.2844C93.2188 86.0135 92.4479 85.8781 91.4375 85.8781V91.8469C91.4375 93.0135 91.4844 93.7271 91.5781 93.9875C91.6823 94.2479 91.8698 94.4614 92.1406 94.6281C92.4115 94.7948 92.849 94.8781 93.4531 94.8781H94.7188C96.6979 94.8781 98.2812 94.4198 99.4688 93.5031C100.667 92.5864 101.526 91.1906 102.047 89.3156H102.625L101.672 96.05H83.3594V95.4719H84.0625C84.6771 95.4719 85.1719 95.3625 85.5469 95.1437C85.8177 94.9979 86.026 94.7479 86.1719 94.3937C86.2865 94.1437 86.3438 93.4875 86.3438 92.425V78.4875C86.3438 77.5292 86.3177 76.9406 86.2656 76.7219C86.1615 76.3573 85.9688 76.076 85.6875 75.8781C85.2917 75.5864 84.75 75.4406 84.0625 75.4406H83.3594V74.8625H101.094V81.1281H100.5C100.198 79.5969 99.7708 78.4979 99.2188 77.8312C98.6771 77.1646 97.9062 76.675 96.9062 76.3625C96.3229 76.175 95.2292 76.0812 93.625 76.0812H91.4375ZM126.141 74.3781V81.8469H125.562C124.865 79.8052 123.818 78.2531 122.422 77.1906C121.026 76.1281 119.5 75.5969 117.844 75.5969C116.26 75.5969 114.943 76.0448 113.891 76.9406C112.839 77.826 112.094 79.0656 111.656 80.6594C111.219 82.2531 111 83.8885 111 85.5656C111 87.5969 111.24 89.3781 111.719 90.9094C112.198 92.4406 112.969 93.5656 114.031 94.2844C115.104 95.0031 116.375 95.3625 117.844 95.3625C118.354 95.3625 118.875 95.3104 119.406 95.2062C119.948 95.0917 120.5 94.9302 121.062 94.7219V90.3156C121.062 89.4823 121.005 88.9458 120.891 88.7062C120.776 88.4562 120.536 88.2323 120.172 88.0344C119.818 87.8364 119.385 87.7375 118.875 87.7375H118.328V87.1594H128.625V87.7375C127.844 87.7896 127.297 87.8989 126.984 88.0656C126.682 88.2219 126.448 88.4875 126.281 88.8625C126.188 89.0604 126.141 89.5448 126.141 90.3156V94.7219C124.786 95.326 123.375 95.7792 121.906 96.0812C120.448 96.3937 118.932 96.55 117.359 96.55C115.349 96.55 113.677 96.2792 112.344 95.7375C111.021 95.1854 109.849 94.4667 108.828 93.5812C107.818 92.6854 107.026 91.6802 106.453 90.5656C105.724 89.1281 105.359 87.5187 105.359 85.7375C105.359 82.55 106.479 79.8573 108.719 77.6594C110.958 75.4614 113.776 74.3625 117.172 74.3625C118.224 74.3625 119.172 74.4458 120.016 74.6125C120.474 74.6958 121.214 74.9354 122.234 75.3312C123.266 75.7167 123.875 75.9094 124.062 75.9094C124.354 75.9094 124.625 75.8052 124.875 75.5969C125.125 75.3781 125.354 74.9719 125.562 74.3781H126.141ZM142.281 90.0187H134.797L133.906 92.0812C133.615 92.7687 133.469 93.3364 133.469 93.7844C133.469 94.3781 133.708 94.8156 134.188 95.0969C134.469 95.2635 135.161 95.3885 136.266 95.4719V96.05H129.219V95.4719C129.979 95.3573 130.604 95.0448 131.094 94.5344C131.583 94.0135 132.188 92.9458 132.906 91.3312L140.484 74.425H140.781L148.422 91.8C149.151 93.4458 149.75 94.4823 150.219 94.9094C150.573 95.2323 151.073 95.4198 151.719 95.4719V96.05H141.469V95.4719H141.891C142.714 95.4719 143.292 95.3573 143.625 95.1281C143.854 94.9614 143.969 94.7219 143.969 94.4094C143.969 94.2219 143.938 94.0292 143.875 93.8312C143.854 93.7375 143.698 93.3469 143.406 92.6594L142.281 90.0187ZM141.75 88.8625L138.594 81.5656L135.344 88.8625H141.75ZM172.297 88.6125L171.5 96.05H152.688V95.4719H153.391C154.005 95.4719 154.5 95.3625 154.875 95.1437C155.146 94.9979 155.354 94.7479 155.5 94.3937C155.615 94.1437 155.672 93.4875 155.672 92.425V78.4875C155.672 77.4042 155.615 76.7271 155.5 76.4562C155.385 76.1854 155.151 75.951 154.797 75.7531C154.453 75.5448 153.984 75.4406 153.391 75.4406H152.688V74.8625H163.984V75.4406H163.062C162.448 75.4406 161.953 75.55 161.578 75.7687C161.307 75.9146 161.094 76.1646 160.938 76.5187C160.823 76.7687 160.766 77.425 160.766 78.4875V91.9875C160.766 93.0708 160.828 93.7635 160.953 94.0656C161.078 94.3573 161.323 94.576 161.688 94.7219C161.948 94.8156 162.578 94.8625 163.578 94.8625H165.344C166.469 94.8625 167.406 94.6646 168.156 94.2687C168.906 93.8729 169.552 93.2479 170.094 92.3937C170.646 91.5396 171.167 90.2792 171.656 88.6125H172.297Z" fill="#001743"/>
<path d="M44.9902 112.39H41.9141L41.375 113.644C41.2422 113.952 41.1758 114.183 41.1758 114.335C41.1758 114.456 41.2324 114.564 41.3457 114.657C41.4629 114.747 41.7129 114.806 42.0957 114.833V115.05H39.5938V114.833C39.9258 114.775 40.1406 114.698 40.2383 114.605C40.4375 114.417 40.6582 114.036 40.9004 113.462L43.6953 106.923H43.9004L46.666 113.532C46.8887 114.064 47.0898 114.409 47.2695 114.57C47.4531 114.726 47.707 114.814 48.0312 114.833V115.05H44.8965V114.833C45.2129 114.818 45.4258 114.765 45.5352 114.675C45.6484 114.585 45.7051 114.476 45.7051 114.347C45.7051 114.175 45.627 113.904 45.4707 113.532L44.9902 112.39ZM44.8262 111.956L43.4785 108.745L42.0957 111.956H44.8262ZM51.257 115.05V114.833H51.5558C51.8917 114.833 52.13 114.726 52.2706 114.511C52.3566 114.382 52.3995 114.093 52.3995 113.644V108.511C52.3995 108.015 52.3448 107.704 52.2355 107.579C52.0831 107.407 51.8566 107.321 51.5558 107.321H51.257V107.105H54.4913C55.6788 107.105 56.5812 107.239 57.1984 107.509C57.8195 107.779 58.3175 108.228 58.6925 108.857C59.0714 109.486 59.2609 110.212 59.2609 111.036C59.2609 112.142 58.9249 113.066 58.253 113.808C57.4991 114.636 56.3507 115.05 54.8077 115.05H51.257ZM53.5245 114.476C54.0206 114.585 54.4366 114.64 54.7726 114.64C55.6788 114.64 56.4308 114.321 57.0284 113.685C57.6261 113.048 57.9249 112.185 57.9249 111.095C57.9249 109.997 57.6261 109.132 57.0284 108.499C56.4308 107.866 55.6632 107.55 54.7257 107.55C54.3741 107.55 53.9738 107.607 53.5245 107.72V114.476ZM71.1233 107.105V107.321C70.842 107.372 70.6291 107.462 70.4846 107.591C70.2776 107.782 70.094 108.075 69.9338 108.47L67.1623 115.232H66.9455L63.969 108.382C63.8166 108.03 63.7092 107.816 63.6467 107.737C63.5491 107.616 63.428 107.523 63.2834 107.456C63.1428 107.386 62.9514 107.341 62.7092 107.321V107.105H65.9553V107.321C65.5881 107.357 65.3498 107.419 65.2405 107.509C65.1311 107.599 65.0764 107.714 65.0764 107.855C65.0764 108.05 65.1663 108.355 65.3459 108.769L67.3674 113.427L69.2424 108.827C69.426 108.374 69.5178 108.06 69.5178 107.884C69.5178 107.771 69.4612 107.663 69.3479 107.562C69.2346 107.456 69.0432 107.382 68.7737 107.339C68.7541 107.335 68.7209 107.329 68.6741 107.321V107.105H71.1233ZM78.5443 106.923C79.5755 106.923 80.4681 107.316 81.222 108.101C81.9798 108.882 82.3587 109.859 82.3587 111.03C82.3587 112.237 81.9779 113.239 81.2162 114.036C80.4545 114.833 79.5326 115.232 78.4505 115.232C77.3568 115.232 76.4369 114.843 75.6908 114.066C74.9486 113.288 74.5775 112.282 74.5775 111.048C74.5775 109.786 75.0072 108.757 75.8666 107.96C76.6127 107.269 77.5052 106.923 78.5443 106.923ZM78.433 107.351C77.722 107.351 77.1517 107.614 76.722 108.142C76.1869 108.798 75.9193 109.759 75.9193 111.025C75.9193 112.321 76.1966 113.32 76.7513 114.019C77.1771 114.55 77.7396 114.816 78.4388 114.816C79.1849 114.816 79.8002 114.525 80.2845 113.943C80.7728 113.361 81.017 112.443 81.017 111.189C81.017 109.829 80.7494 108.816 80.2142 108.148C79.7845 107.616 79.1908 107.351 78.433 107.351ZM92.9321 106.923L93.1138 109.624H92.9321C92.6899 108.816 92.3442 108.234 91.895 107.878C91.4458 107.523 90.9067 107.345 90.2778 107.345C89.7505 107.345 89.2739 107.48 88.8481 107.749C88.4223 108.015 88.0864 108.441 87.8403 109.027C87.5981 109.612 87.477 110.341 87.477 111.212C87.477 111.931 87.5923 112.554 87.8227 113.081C88.0532 113.609 88.3989 114.013 88.8598 114.294C89.3247 114.575 89.854 114.716 90.4477 114.716C90.9634 114.716 91.4184 114.607 91.813 114.388C92.2075 114.165 92.6411 113.726 93.1138 113.07L93.2954 113.187C92.897 113.894 92.4321 114.411 91.9009 114.739C91.3696 115.068 90.7388 115.232 90.0083 115.232C88.6919 115.232 87.6723 114.743 86.9497 113.767C86.4106 113.04 86.1411 112.185 86.1411 111.2C86.1411 110.407 86.3188 109.679 86.6743 109.015C87.0298 108.351 87.518 107.837 88.1391 107.474C88.7641 107.107 89.4458 106.923 90.1841 106.923C90.7583 106.923 91.3247 107.064 91.8833 107.345C92.0473 107.431 92.1645 107.474 92.2348 107.474C92.3403 107.474 92.4321 107.437 92.5102 107.362C92.6118 107.257 92.6841 107.111 92.727 106.923H92.9321ZM102.082 112.39H99.0055L98.4664 113.644C98.3336 113.952 98.2672 114.183 98.2672 114.335C98.2672 114.456 98.3238 114.564 98.4371 114.657C98.5543 114.747 98.8043 114.806 99.1871 114.833V115.05H96.6852V114.833C97.0172 114.775 97.232 114.698 97.3297 114.605C97.5289 114.417 97.7496 114.036 97.9918 113.462L100.787 106.923H100.992L103.757 113.532C103.98 114.064 104.181 114.409 104.361 114.57C104.545 114.726 104.798 114.814 105.123 114.833V115.05H101.988V114.833C102.304 114.818 102.517 114.765 102.627 114.675C102.74 114.585 102.796 114.476 102.796 114.347C102.796 114.175 102.718 113.904 102.562 113.532L102.082 112.39ZM101.918 111.956L100.57 108.745L99.1871 111.956H101.918ZM113.751 107.105L113.839 108.968H113.616C113.573 108.64 113.514 108.405 113.44 108.265C113.319 108.038 113.157 107.872 112.954 107.767C112.755 107.657 112.491 107.603 112.163 107.603H111.044V113.673C111.044 114.161 111.096 114.466 111.202 114.587C111.35 114.751 111.579 114.833 111.887 114.833H112.163V115.05H108.794V114.833H109.075C109.411 114.833 109.649 114.732 109.79 114.529C109.876 114.404 109.919 114.118 109.919 113.673V107.603H108.964C108.592 107.603 108.329 107.63 108.173 107.685C107.969 107.759 107.796 107.902 107.651 108.112C107.507 108.323 107.421 108.609 107.393 108.968H107.171L107.264 107.105H113.751ZM119.531 107.538V110.679H121.277C121.73 110.679 122.033 110.611 122.185 110.474C122.389 110.294 122.502 109.978 122.525 109.525H122.742V112.29H122.525C122.471 111.904 122.416 111.655 122.361 111.546C122.291 111.409 122.176 111.302 122.015 111.224C121.855 111.146 121.609 111.107 121.277 111.107H119.531V113.726C119.531 114.077 119.547 114.292 119.578 114.37C119.609 114.445 119.664 114.505 119.742 114.552C119.82 114.595 119.969 114.616 120.187 114.616H121.535C121.984 114.616 122.31 114.585 122.514 114.523C122.717 114.46 122.912 114.337 123.099 114.154C123.342 113.911 123.59 113.546 123.844 113.058H124.078L123.392 115.05H117.269V114.833H117.551C117.738 114.833 117.916 114.788 118.084 114.698C118.209 114.636 118.293 114.542 118.336 114.417C118.383 114.292 118.406 114.036 118.406 113.65V108.487C118.406 107.984 118.355 107.673 118.254 107.556C118.113 107.4 117.879 107.321 117.551 107.321H117.269V107.105H123.392L123.48 108.845H123.252C123.17 108.427 123.078 108.14 122.976 107.984C122.879 107.827 122.732 107.708 122.537 107.626C122.381 107.568 122.105 107.538 121.711 107.538H119.531ZM132.741 106.923V109.671H132.524C132.454 109.144 132.327 108.724 132.144 108.411C131.964 108.099 131.706 107.851 131.37 107.667C131.034 107.484 130.686 107.392 130.327 107.392C129.921 107.392 129.585 107.517 129.319 107.767C129.054 108.013 128.921 108.294 128.921 108.611C128.921 108.853 129.005 109.073 129.173 109.273C129.415 109.566 129.991 109.956 130.901 110.445C131.644 110.843 132.149 111.15 132.419 111.364C132.692 111.575 132.901 111.825 133.046 112.114C133.194 112.404 133.269 112.706 133.269 113.023C133.269 113.624 133.034 114.144 132.565 114.581C132.101 115.015 131.501 115.232 130.767 115.232C130.536 115.232 130.319 115.214 130.116 115.179C129.995 115.159 129.743 115.089 129.36 114.968C128.981 114.843 128.741 114.78 128.64 114.78C128.542 114.78 128.464 114.81 128.405 114.868C128.351 114.927 128.31 115.048 128.282 115.232H128.065V112.507H128.282C128.384 113.077 128.52 113.505 128.692 113.79C128.864 114.071 129.126 114.306 129.478 114.493C129.833 114.681 130.222 114.775 130.644 114.775C131.132 114.775 131.517 114.646 131.798 114.388C132.083 114.13 132.226 113.825 132.226 113.474C132.226 113.279 132.171 113.081 132.061 112.882C131.956 112.683 131.79 112.497 131.563 112.325C131.411 112.208 130.995 111.96 130.315 111.581C129.636 111.198 129.151 110.894 128.862 110.667C128.577 110.441 128.36 110.191 128.212 109.917C128.063 109.644 127.989 109.343 127.989 109.015C127.989 108.445 128.208 107.954 128.645 107.544C129.083 107.13 129.64 106.923 130.315 106.923C130.737 106.923 131.185 107.027 131.657 107.234C131.876 107.331 132.03 107.38 132.12 107.38C132.222 107.38 132.304 107.351 132.366 107.292C132.433 107.23 132.485 107.107 132.524 106.923H132.741Z" fill="#1E1E1E"/>
<path d="M94.4586 20.4822H79.53V55.1716H81.2397V23.3642C81.2397 22.6165 81.8447 22.0115 82.5924 22.0115C83.3401 22.0115 83.9451 22.6165 83.9451 23.3642V55.1716H85.6548V23.3642C85.6548 22.6165 86.2597 22.0115 87.0075 22.0115C87.7552 22.0115 88.3602 22.6165 88.3602 23.3642V55.1716H90.0699V23.3642C90.0699 22.6165 90.6748 22.0115 91.4226 22.0115C92.1703 22.0115 92.7753 22.6165 92.7753 23.3642V55.1716H94.4849V20.4822H94.4662H94.4586Z" fill="#001743"/>
<path d="M94.9998 18.3066H79.0115C78.7978 18.3066 78.6245 18.4799 78.6245 18.6936V19.6293C78.6245 19.843 78.7978 20.0163 79.0115 20.0163H94.9998C95.2135 20.0163 95.3868 19.843 95.3868 19.6293V18.6936C95.3868 18.4799 95.2135 18.3066 94.9998 18.3066Z" fill="#001743"/>
<path d="M96.2023 55.5737H77.8055C77.5917 55.5737 77.4185 55.7469 77.4185 55.9607V56.8963C77.4185 57.1101 77.5917 57.2833 77.8055 57.2833H96.2023C96.416 57.2833 96.5893 57.1101 96.5893 56.8963V55.9607C96.5893 55.7469 96.416 55.5737 96.2023 55.5737Z" fill="#001743"/>
<path d="M98.9151 57.6891H75.0963C74.8825 57.6891 74.7092 57.8624 74.7092 58.0761V59.613C74.7092 59.8267 74.8825 60 75.0963 60H98.9151C99.1289 60 99.3022 59.8267 99.3022 59.613V58.0761C99.3022 57.8624 99.1289 57.6891 98.9151 57.6891Z" fill="#001743"/>
<path d="M100.666 19.4076L87.297 6.32014C87.1354 6.16233 86.8761 6.16233 86.7146 6.32014L73.3453 19.4076C73.2101 19.5391 73.2101 19.7533 73.3416 19.8885L74.1645 20.7265C74.296 20.8617 74.5102 20.8617 74.6454 20.7302L87.0077 8.62726L99.3699 20.7302C99.5052 20.8617 99.7193 20.858 99.8508 20.7265L100.674 19.8885C100.805 19.7533 100.801 19.5391 100.67 19.4076H100.666Z" fill="#001743"/>
<path d="M87.0038 11.2613C87.0038 11.2613 86.5266 13.4369 84.103 14.3161C86.5266 15.1916 87.0038 17.371 87.0038 17.371C87.0038 17.371 87.481 15.1954 89.9046 14.3161C87.481 13.4406 87.0038 11.2613 87.0038 11.2613Z" fill="#001743"/>
<path d="M68.8363 12.5726C64.3837 14.7708 60.1978 14.8459 57.6464 14.5792C57.8644 14.1846 57.9921 13.9629 57.9921 13.4744C57.9921 12.0278 56.91 11.0922 55.5798 11.0922C54.2496 11.0922 53.1675 12.0278 53.1675 13.4744C53.1675 14.7445 54.0016 15.7891 55.1101 16.0258C55.1514 16.0371 62.1555 17.7392 70.655 14.8159C73.8601 13.7149 76.4566 13.0461 78.4405 12.6403L83.0209 8.15756C82.0365 8.19889 76.8699 8.60846 68.8438 12.5726H68.8363ZM55.5497 14.9286C55.5497 14.9286 55.3318 13.9404 54.2346 13.5458C55.3318 13.1475 55.5497 12.1631 55.5497 12.1631C55.5497 12.1631 55.7677 13.1513 56.8649 13.5458C55.7677 13.9441 55.5497 14.9286 55.5497 14.9286Z" fill="#001743"/>
<path d="M118.428 11.0922C117.094 11.0922 116.016 12.0278 116.016 13.4744C116.016 13.9667 116.143 14.1884 116.361 14.5792C113.806 14.8422 109.62 14.767 105.171 12.5726C97.1454 8.61222 91.9789 8.20265 90.9944 8.15756L95.5748 12.6403C97.5588 13.0461 100.155 13.7149 103.36 14.8159C111.86 17.7392 118.864 16.0371 118.905 16.0258C120.014 15.7891 120.848 14.7445 120.848 13.4744C120.848 12.0278 119.766 11.0922 118.436 11.0922H118.428ZM118.451 14.9286C118.451 14.9286 118.233 13.9404 117.135 13.5458C118.233 13.1475 118.451 12.1631 118.451 12.1631C118.451 12.1631 118.668 13.1513 119.766 13.5458C118.668 13.9441 118.451 14.9286 118.451 14.9286Z" fill="#001743"/>
<path d="M65.819 41.141H65.6236L56.1809 15.4584H54.9184L45.4758 41.141H45.2804C44.9986 41.141 44.837 41.4642 45.0099 41.6859C47.2531 44.6017 51.1346 46.5293 55.5497 46.5293C59.9648 46.5293 63.8463 44.6017 66.0895 41.6859C66.2624 41.4642 66.097 41.141 65.819 41.141ZM64.8683 41.141H55.9029V16.7623L64.8683 41.141ZM55.1927 16.7623V41.141H46.231L55.1927 16.7623Z" fill="#001743"/>
<path d="M128.72 41.141H128.524L119.104 15.5223H117.797L108.377 41.141H108.181C107.899 41.141 107.738 41.4642 107.911 41.6859C110.154 44.6017 114.035 46.5293 118.45 46.5293C122.866 46.5293 126.747 44.6017 128.99 41.6859C129.163 41.4642 128.998 41.141 128.72 41.141ZM127.769 41.141H118.804V16.7623L127.769 41.141ZM118.097 16.7623V41.141H109.132L118.097 16.7623Z" fill="#001743"/>
<path d="M73.0072 12.227C74.8447 6.33141 80.3532 2.03657 86.8499 2.03657C93.3467 2.03657 98.8965 6.36523 100.711 12.2946L103.015 13.0724C101.418 5.61373 94.7783 0 86.8499 0C78.9216 0 72.1956 5.68136 70.655 13.2114L73.0072 12.227Z" fill="#001743"/>
</svg>
